<svg width="87" height="19" viewBox="0 0 87 19" fill="none" xmlns="http://www.w3.org/2000/svg">
<path d="M21.6897 3.5498C23.6738 3.5498 25.1976 4.02599 26.2611 4.97837C27.3246 5.91488 27.8563 7.33552 27.8563 9.24028V16.5498H24.3801V14.9546C23.6817 16.145 22.3801 16.7403 20.4754 16.7403C19.4913 16.7403 18.6341 16.5736 17.904 16.2403C17.1897 15.9069 16.642 15.4466 16.2611 14.8593C15.8801 14.272 15.6897 13.6054 15.6897 12.8593C15.6897 11.6689 16.1341 10.7323 17.023 10.0498C17.9278 9.36726 19.3167 9.02599 21.1897 9.02599H24.1421C24.1421 8.21647 23.896 7.59742 23.404 7.16885C22.9119 6.72441 22.1738 6.50218 21.1897 6.50218C20.5071 6.50218 19.8325 6.6133 19.1659 6.83552C18.5151 7.04187 17.9595 7.32758 17.4992 7.69266L16.1659 5.09742C16.8643 4.60536 17.6976 4.22441 18.6659 3.95456C19.65 3.68472 20.6579 3.5498 21.6897 3.5498ZM21.404 14.2403C22.0389 14.2403 22.6024 14.0974 23.0944 13.8117C23.5865 13.5101 23.9357 13.0736 24.1421 12.5022V11.1927H21.5944C20.0706 11.1927 19.3087 11.6927 19.3087 12.6927C19.3087 13.1689 19.4913 13.5498 19.8563 13.8355C20.2373 14.1054 20.7532 14.2403 21.404 14.2403Z" fill="#F42155"/>
<path d="M42.7675 6.53905C42.7913 6.58029 42.9373 6.88087 43.2056 7.44079L34.8134 12.286C35.3614 12.8861 36.0323 13.2227 36.8261 13.2959C37.6199 13.3692 38.436 13.1637 39.2745 12.6796C39.8519 12.3463 40.3129 11.9702 40.6575 11.5512C41.008 11.1106 41.2685 10.5936 41.4391 10.0003L44.222 10.8679C43.8677 12.667 42.6871 14.146 40.6801 15.3047C39.4292 16.0269 38.1837 16.4252 36.9437 16.4997C35.6958 16.5604 34.5606 16.3085 33.5382 15.744C32.5159 15.1796 31.6872 14.3475 31.0523 13.2478C30.4253 12.1618 30.1161 11.039 30.1247 9.87935C30.1392 8.69799 30.4543 7.60881 31.07 6.61181C31.6916 5.59313 32.5591 4.76236 33.6725 4.1195C34.7585 3.49252 35.8763 3.15875 37.0259 3.11819C38.1755 3.07763 39.2517 3.35438 40.2545 3.94844C41.2631 4.52081 42.1008 5.38435 42.7675 6.53905ZM35.0979 6.54072C34.3693 6.96135 33.8767 7.52072 33.6199 8.21883C33.3631 8.91694 33.3861 9.65515 33.6888 10.4335L39.153 7.27869C38.6383 6.64111 38.0144 6.25899 37.2815 6.13231C36.5406 5.99188 35.8127 6.12802 35.0979 6.54072Z" fill="#F42155"/>
<path d="M62.779 3.5498C64.3822 3.5498 65.652 4.02599 66.5885 4.97837C67.5409 5.91488 68.0171 7.32758 68.0171 9.21647V16.5498H64.3028V9.7879C64.3028 8.77203 64.0885 8.01806 63.66 7.52599C63.2473 7.01806 62.652 6.76409 61.8743 6.76409C61.0012 6.76409 60.3108 7.0498 59.8028 7.62123C59.2949 8.17679 59.0409 9.01012 59.0409 10.1212V16.5498H55.3266V9.7879C55.3266 7.77203 54.5171 6.76409 52.8981 6.76409C52.0409 6.76409 51.3584 7.0498 50.8505 7.62123C50.3425 8.17679 50.0885 9.01012 50.0885 10.1212V16.5498H46.3743V3.74028H49.9219V5.21647C50.3981 4.67679 50.9774 4.26409 51.66 3.97837C52.3584 3.69266 53.1203 3.5498 53.9457 3.5498C54.8505 3.5498 55.6679 3.73234 56.3981 4.09742C57.1282 4.44663 57.7155 4.9625 58.16 5.64504C58.6838 4.97837 59.3425 4.4625 60.1362 4.09742C60.9457 3.73234 61.8266 3.5498 62.779 3.5498Z" fill="#F42155"/>
<path d="M83.3565 6.53905C83.3803 6.58029 83.5264 6.88087 83.7946 7.44079L75.4024 12.286C75.9505 12.8861 76.6214 13.2227 77.4151 13.2959C78.2089 13.3692 79.0251 13.1637 79.8636 12.6796C80.4409 12.3463 80.9019 11.9702 81.2466 11.5512C81.597 11.1106 81.8576 10.5936 82.0282 10.0003L84.811 10.8679C84.4568 12.667 83.2762 14.146 81.2692 15.3047C80.0183 16.0269 78.7728 16.4252 77.5328 16.4997C76.2848 16.5604 75.1496 16.3085 74.1273 15.744C73.1049 15.1796 72.2763 14.3475 71.6413 13.2478C71.0144 12.1618 70.7052 11.039 70.7138 9.87935C70.7282 8.69799 71.0433 7.60881 71.659 6.61181C72.2806 5.59313 73.1481 4.76236 74.2616 4.1195C75.3475 3.49252 76.4653 3.15875 77.6149 3.11819C78.7646 3.07763 79.8408 3.35438 80.8436 3.94844C81.8522 4.52081 82.6898 5.38435 83.3565 6.53905ZM75.6869 6.54072C74.9584 6.96135 74.4657 7.52072 74.2089 8.21883C73.9522 8.91694 73.9751 9.65515 74.2779 10.4335L79.7421 7.27869C79.2273 6.64111 78.6035 6.25899 77.8705 6.13231C77.1296 5.99188 76.4018 6.12802 75.6869 6.54072Z" fill="#F42155"/>
<path d="M3.54762 3.19254C3.58278 3.1824 3.61811 3.17263 3.6536 3.16324C4.27069 3 5.02225 3 6.52538 3C7.13373 3 7.61898 3 8.02203 3.01082V3.00359C9.50031 3.04892 10.6993 3.52392 11.619 4.42857C12.6032 5.38095 13.0952 6.79365 13.0952 8.66666V15.9899C11.9564 14.8323 10.7132 13.7777 9.38095 12.8412V9.23809C9.38095 8.22222 9.15873 7.46825 8.71429 6.97619C8.26984 6.46825 7.62699 6.21428 6.78572 6.21428C5.84921 6.21428 5.10318 6.50793 4.54762 7.09524C3.99206 7.66667 3.71429 8.52381 3.71429 9.66667V9.80093C2.51618 9.3338 1.27622 8.95032 0.00159582 8.65768C0.00747045 7.70678 0.0349255 7.13865 0.163235 6.65361C0.605222 4.98277 1.89222 3.67021 3.54762 3.19254Z" fill="#F42155"/>
<path d="M0 14.4754C1.29388 14.8576 2.53627 15.3593 3.71429 15.9678V16H0V14.4754Z" fill="#F42155"/>
</svg>
